<?xml version="1.0" encoding="utf-8"?>
<!-- Generator: Adobe Illustrator 19.1.0, SVG Export Plug-In . SVG Version: 6.00 Build 0)  -->
<svg version="1.1" xmlns="http://www.w3.org/2000/svg" xmlns:xlink="http://www.w3.org/1999/xlink" x="0px" y="0px"
	 viewBox="0 0 235 100" enable-background="new 0 0 235 100" xml:space="preserve">
<g id="Layer_1">
	<g>
		<g>
			<path fill="#15A4FA" d="M87,21.6L43.8,0L0.6,21.6C-5.8,88.4,43.8,100,43.8,100S93.4,88.4,87,21.6z"/>
			<path fill="#E6E6E6" d="M81.4,25.2L43.8,6.4L6.1,25.2C0.5,83.5,43.8,93.6,43.8,93.6S87,83.5,81.4,25.2z"/>
			<path fill="#F2F2F2" d="M43.5,93.6c0,0-43.3-10.1-37.7-68.4L43.5,6.4V93.6z"/>
		</g>
	</g>
	<g>
		<path fill="#15A4FA" d="M136.3,75.7h-10.9V33.4h-14v-9.1h38.8v9.1h-14V75.7z"/>
		<path fill="#15A4FA" d="M180,32.7c-4.1,0-7.3,1.5-9.5,4.6s-3.4,7.4-3.4,12.9c0,11.5,4.3,17.2,12.9,17.2c3.6,0,8-0.9,13.1-2.7v9.1
			c-4.2,1.8-8.9,2.6-14.1,2.6c-7.5,0-13.2-2.3-17.2-6.8s-5.9-11-5.9-19.5c0-5.3,1-10,2.9-14s4.7-7.1,8.4-9.2s7.9-3.2,12.8-3.2
			c5,0,10,1.2,15,3.6l-3.5,8.9c-1.9-0.9-3.9-1.7-5.8-2.4S181.9,32.7,180,32.7z"/>
		<path fill="#15A4FA" d="M234.4,61.4c0,4.6-1.7,8.3-5,11s-8,4-13.9,4c-5.5,0-10.3-1-14.6-3.1V63.2c3.5,1.5,6.4,2.6,8.8,3.3
			s4.6,0.9,6.6,0.9c2.4,0,4.2-0.5,5.5-1.4s1.9-2.3,1.9-4.1c0-1-0.3-1.9-0.8-2.7s-1.4-1.5-2.5-2.3s-3.3-1.9-6.7-3.5
			c-3.1-1.5-5.5-2.9-7.1-4.3s-2.8-2.9-3.8-4.7s-1.4-3.9-1.4-6.3c0-4.5,1.5-8.1,4.6-10.7s7.3-3.9,12.8-3.9c2.7,0,5.2,0.3,7.6,0.9
			s5,1.5,7.6,2.7l-3.5,8.5c-2.7-1.1-5-1.9-6.8-2.4s-3.6-0.7-5.3-0.7c-2.1,0-3.6,0.5-4.7,1.4s-1.7,2.2-1.7,3.8c0,1,0.2,1.8,0.7,2.5
			s1.2,1.4,2.1,2.1s3.3,1.9,6.9,3.6c4.8,2.3,8.1,4.6,9.9,6.9S234.4,58.1,234.4,61.4z"/>
	</g>
</g>
<g id="Layer_2">
</g>
</svg>
